<?xml version="1.0" encoding="UTF-8" standalone="no"?>
<!-- Created with Inkscape (http://www.inkscape.org/) -->
<svg
   xmlns:dc="http://purl.org/dc/elements/1.1/"
   xmlns:cc="http://web.resource.org/cc/"
   xmlns:rdf="http://www.w3.org/1999/02/22-rdf-syntax-ns#"
   xmlns:svg="http://www.w3.org/2000/svg"
   xmlns="http://www.w3.org/2000/svg"
   xmlns:sodipodi="http://sodipodi.sourceforge.net/DTD/sodipodi-0.dtd"
   xmlns:inkscape="http://www.inkscape.org/namespaces/inkscape"
   width="800px"
   height="600px"
   id="svg2170"
   sodipodi:version="0.32"
   inkscape:version="0.45.1"
   sodipodi:docbase="/media/daten/artwork/papa_vespa"
   sodipodi:docname="ocl_vespa.svg"
   inkscape:output_extension="org.inkscape.output.svg.inkscape">
  <defs
     id="defs2172" />
  <sodipodi:namedview
     id="base"
     pagecolor="#ffffff"
     bordercolor="#666666"
     borderopacity="1.0"
     inkscape:pageopacity="0.0"
     inkscape:pageshadow="2"
     inkscape:zoom="0.6"
     inkscape:cx="400"
     inkscape:cy="300"
     inkscape:current-layer="layer1"
     inkscape:document-units="px" />
  <metadata
     id="metadata2175">
    <rdf:RDF>
      <cc:Work
         rdf:about="">
        <dc:format>image/svg+xml</dc:format>
        <dc:type
           rdf:resource="http://purl.org/dc/dcmitype/StillImage" />
      </cc:Work>
    </rdf:RDF>
  </metadata>
  <g
     id="layer1"
     inkscape:label="Layer 1"
     inkscape:groupmode="layer">
    <path
       style="fill:#000000;fill-rule:evenodd;stroke:none;stroke-width:1px;stroke-linecap:butt;stroke-linejoin:miter;stroke-opacity:1"
       d="M 118.91026,396.74505 C 118.91026,396.74505 116.85323,417.55758 126.88113,434.51595 C 136.90891,451.47433 147.96533,458.41184 155.67905,463.29382 C 163.39281,468.17576 176.24895,471.51602 187.81954,472.28688 C 199.39019,473.05767 213.27485,472.02988 225.61683,466.37709 C 237.95881,460.72436 245.92964,452.50217 250.55792,447.36325 C 255.18614,442.22432 258.52873,437.34235 262.38567,431.17569 L 269.19939,425.90833 C 269.19939,425.90833 274.85618,426.16521 278.3273,423.72429 C 278.3273,423.72429 281.15574,426.03676 293.11195,423.98124 C 305.06823,421.92571 320.75282,416.91521 320.75282,416.91521 C 320.75282,416.91521 349.67936,418.19995 390.8192,419.0993 L 403.67014,467.90229 C 403.67014,467.90229 399.39751,467.08472 399.57939,470.62764 C 399.76115,474.17047 399.94298,476.62332 399.94298,476.62332 C 399.94298,476.62332 400.21576,478.34928 403.48833,478.07679 L 404.76106,478.07679 L 408.2155,489.52309 L 409.12453,503.96728 C 409.12453,503.96728 410.30641,509.8721 417.39719,508.87279 C 424.48794,507.87353 423.76061,502.87714 423.85157,501.60534 C 423.94248,500.33349 423.76061,499.51594 421.5789,494.24699 C 419.39707,488.97803 417.66991,486.07102 417.66991,486.07102 L 412.67,466.53959 L 411.57909,465.72197 L 399.67024,419.48261 L 405.30645,419.48261 L 407.3064,425.38742 L 408.12465,437.01544 C 408.12465,437.01544 408.85186,441.10339 415.03358,440.73994 C 421.21526,440.37668 421.21526,435.83443 420.94252,434.29005 C 420.6698,432.74573 415.39717,421.93535 415.39717,421.93535 L 415.03358,420.20932 L 497.65435,422.18259 C 497.65435,422.18259 519.48588,422.84374 534.03097,409.03549 C 548.57621,395.22721 551.84889,390.50332 551.84889,390.50332 C 551.84889,390.50332 558.03056,395.40897 571.12117,394.86383 C 571.12117,394.86383 571.30293,421.02688 583.12093,437.74214 C 594.93887,454.45746 602.39326,458.9996 618.57474,466.99387 C 634.75622,474.98815 656.39206,472.98953 661.8465,472.44445 C 667.30094,471.89944 686.93693,465.90377 701.11839,452.82225 C 715.29994,439.74076 720.02709,423.38882 722.39071,413.75943 C 724.75433,404.12994 724.75433,381.6007 715.29994,364.88551 C 705.84563,348.17018 700.75479,345.44485 700.75479,345.44485 C 700.75479,345.44485 734.45157,347.85585 739.84484,341.08442 C 743.39023,336.63302 742.3903,333.63516 741.29933,331.6366 C 740.20852,329.6381 732.57231,310.19746 704.39114,292.5738 C 704.39114,292.5738 706.02739,290.03017 701.66392,286.94151 C 697.30028,283.85274 676.75533,275.67684 651.66491,278.40216 C 651.66491,278.40216 639.30153,279.12898 638.75609,280.7641 C 638.75609,280.7641 633.84718,280.94579 631.66532,282.21764 C 631.66532,282.21764 634.30166,279.8557 630.75627,277.76629 L 629.02906,276.4945 C 629.02906,276.4945 632.11988,274.31419 631.57444,273.04236 C 631.02908,271.77063 631.02908,271.49809 631.02908,271.49809 C 631.02908,271.49809 632.84708,270.22624 631.66532,265.04813 C 630.48355,259.87009 623.39286,249.87725 619.66563,251.05818 C 619.66563,251.05818 619.1201,248.42377 615.12032,248.6054 C 615.12032,248.6054 611.84762,249.87725 606.57499,242.06468 C 601.30241,234.2521 567.66667,160.48702 567.66667,160.48702 L 573.303,163.39402 C 573.303,163.39402 576.30289,164.66577 574.93931,161.94051 C 573.57572,159.21517 572.75747,160.57782 564.9395,150.31248 C 564.9395,150.31248 565.03041,148.31393 563.3032,145.86111 C 561.5759,143.40838 559.21238,140.22879 559.5759,139.59295 C 559.9396,138.95702 562.12143,136.59509 566.03035,136.41336 C 569.9394,136.2317 571.93929,137.68519 574.03022,137.86692 C 576.12107,138.04858 582.21188,138.95702 587.21179,134.59653 C 592.21165,130.23604 594.30255,116.88197 594.30255,113.1574 C 594.30255,109.43275 593.48431,96.623822 588.39356,92.990036 C 583.3028,89.35635 570.12116,91.536545 565.9395,93.171762 C 561.75773,94.806929 557.66693,98.349852 553.0307,103.43711 L 550.12161,103.61877 C 550.12161,103.61877 549.4853,101.98362 546.93984,101.98362 C 544.39448,101.98362 534.48564,104.70888 528.75848,108.52431 C 528.75848,108.52431 526.7131,109.93242 526.53116,111.70389 C 526.53116,111.70389 523.94039,111.02251 522.57675,111.38592 C 521.21316,111.7493 519.62226,112.88488 519.62226,112.88488 L 508.53156,112.83941 C 508.53156,112.83941 502.92538,116.54656 504.85383,121.4285 C 506.78221,126.31046 508.83923,125.79656 508.83923,125.79656 L 515.52442,125.66806 C 515.52442,125.66806 514.30416,131.05361 516.48598,131.41695 C 516.48598,131.41695 518.30411,131.68952 518.39497,133.59722 C 518.39497,133.59722 509.94067,138.13946 513.84966,145.2252 C 517.75871,152.31102 524.6676,148.49559 524.6676,148.49559 L 530.66751,144.4985 L 536.75826,159.21517 C 536.75826,159.21517 535.94008,170.47978 539.21283,179.10996 C 542.48539,187.74015 553.0307,210.45103 553.0307,210.45103 C 553.0307,210.45103 542.48539,199.54977 528.03126,204.45537 C 513.57694,209.36092 510.25346,232.68566 505.62522,250.28632 C 500.99694,267.88712 495.98303,292.42537 495.21168,302.70315 C 494.44029,312.981 492.1262,334.69281 495.98303,339.70328 C 499.8399,344.71366 501.7684,349.08176 513.08176,351.1373 C 513.08176,351.1373 506.01093,358.7172 492.89748,358.7172 C 492.89748,358.7172 492.64042,354.47763 484.79808,354.34913 C 476.95585,354.22062 445.71522,354.34913 400.46139,351.3943 C 400.46139,351.3943 398.79002,350.10952 396.09018,350.49501 C 393.39039,350.88036 392.23334,351.52266 392.23334,352.67896 C 392.23334,352.67896 362.14987,349.08176 353.92189,316.96363 C 353.92189,316.96363 351.60769,310.53992 351.86487,300.13375 C 351.86487,300.13375 353.0862,299.36289 353.40761,297.69274 L 354.88605,297.43581 C 354.88605,297.43581 355.72167,298.97747 357.97159,298.39935 C 360.22138,297.82123 364.39966,295.57301 364.39966,295.57301 C 364.39966,295.57301 367.61379,293.83861 364.1425,292.9393 C 360.67137,292.04001 361.44271,294.41671 357.58589,293.5816 C 353.72906,292.74656 354.56471,294.99483 353.92189,294.09554 C 353.60782,293.65615 353.90758,289.44442 357.10028,282.83913 C 357.20562,282.6212 359.02884,281.46522 360.02968,282.614 C 362.83262,285.83139 364.09085,285.68025 364.09085,280.83627 C 364.09085,272.8856 358.67628,279.81319 359.06155,279.14661 C 362.78903,272.69712 369.01576,264.61471 379.24861,255.81069 C 403.28971,235.12669 412.80332,236.28299 410.61777,229.2169 C 408.43221,222.15095 405.47531,219.19611 405.47531,219.19611 C 405.47531,219.19611 411.19628,225.81245 412.2248,226.32631 C 413.25331,226.8402 415.37457,227.22567 417.0459,225.4912 C 418.71724,223.75682 421.41694,219.13186 421.41694,218.87487 C 421.41694,218.61796 421.80265,216.43394 420.19561,218.10407 C 418.58864,219.77418 417.36731,224.59188 413.96042,224.72036 C 410.55347,224.84887 407.98223,216.56237 404.70392,216.43394 L 402.904,216.43394 C 402.904,216.43394 399.68999,214.31409 400.0757,212.70822 C 400.46139,211.10228 403.48259,211.48776 404.1254,211.55192 C 404.76822,211.61617 411.58199,212.96513 411.58199,212.96513 C 411.58199,212.96513 413.38184,213.60753 414.8603,212.45123 C 416.33874,211.29501 419.03853,210.5242 419.10281,207.5693 C 419.16711,204.61444 419.36004,195.30023 420.90273,189.64739 C 422.44551,183.99463 418.71724,176.41477 417.30301,175.00156 C 415.8888,173.58836 413.63895,172.11089 408.1751,171.66123 C 402.71119,171.21159 381.04852,171.27584 371.02062,170.50501 C 360.99272,169.73422 329.3665,162.15428 326.40956,161.38345 C 323.45261,160.61264 322.1264,160.12363 315.76298,156.30819 C 309.39947,152.49274 302.2178,150.76673 294.03613,152.67442 C 294.03613,152.67442 283.8545,146.04285 275.85476,147.22381 C 267.85484,148.40479 268.49122,151.22091 268.49122,152.12937 C 268.49122,153.03779 267.94582,156.03567 271.58207,158.8518 C 275.21834,161.66792 293.12703,171.66075 293.12703,171.66075 C 293.12703,171.66075 297.21791,178.47402 297.85422,180.29093 C 298.49064,182.10781 299.12688,183.56132 300.58149,184.10636 C 302.03599,184.65141 303.49055,184.46975 304.6723,185.19645 C 305.85414,185.92324 319.94475,193.19073 319.94475,193.19073 C 319.94475,193.19073 327.76273,205.27296 340.4897,207.90742 C 353.21668,210.54189 362.03466,208.90676 362.03466,208.90676 L 361.94375,210.08771 L 353.94395,213.35803 C 353.94395,213.35803 353.03492,213.63062 353.12576,214.62986 C 353.21668,215.62917 353.21668,215.62917 353.21668,215.62917 L 300.30872,216.17421 C 300.30872,216.17421 300.94502,213.53975 295.94511,213.17637 L 293.21801,213.08551 L 293.12703,211.08694 L 294.03613,210.99616 L 294.03613,209.17926 L 293.30886,209.0884 C 293.30886,209.0884 293.49073,206.6356 285.58178,206.90812 C 277.67284,207.18071 278.8546,208.99754 278.8546,208.99754 L 277.67284,208.90676 L 277.67284,211.26868 L 280.12733,211.72286 L 280.03636,212.63131 L 278.03642,212.72217 L 278.03642,213.63062 L 275.40016,213.63062 C 275.40016,213.63062 272.76384,213.81228 272.4002,210.63277 C 272.03662,207.45325 272.4002,207.18071 270.21843,207.08985 C 270.21843,207.08985 272.49112,205.81802 272.49112,201.54839 C 272.49112,197.2787 273.85469,173.56849 266.85485,173.29597 C 259.85504,173.02344 200.2901,172.30363 200.2901,172.30363 C 200.2901,172.30363 197.49267,172.11498 193.76551,171.11567 C 190.0384,170.11645 187.22013,167.39112 172.03873,167.66365 C 156.85725,167.93617 158.03907,167.75451 153.85729,170.20724 C 149.67558,172.66004 148.58471,174.84034 148.58471,178.29236 C 148.58471,181.74441 148.03925,187.19509 147.22102,189.55703 C 146.4029,191.9189 147.312,196.55199 148.85739,201.36666 C 150.40287,206.1814 153.4027,212.72217 153.4027,212.72217 L 148.49375,216.08335 C 148.49375,216.08335 146.85745,217.44605 146.9483,220.62558 C 147.03926,223.80509 146.85745,224.53181 148.58471,224.8044 C 150.31189,225.07694 169.49338,227.80219 174.58407,229.16495 L 167.03882,242.70066 C 167.03882,242.70066 148.13005,252.05751 128.58504,269.13615 L 109.49465,268.86356 L 108.40368,270.31715 C 108.40368,270.31715 86.222345,268.22774 85.676884,283.12604 C 85.676884,283.12604 83.313298,284.39793 83.313298,285.57889 C 83.313298,285.57889 74.859015,289.48509 74.768035,292.39211 C 74.677139,295.29911 74.586176,310.74255 74.586176,310.74255 C 74.586176,310.74255 76.131679,312.10516 83.677,313.01368 C 83.677,313.01368 84.676942,315.01219 87.767814,316.01149 L 81.404194,321.64383 L 57.859302,380.32887 C 57.859302,380.32887 57.041169,382.32747 58.950273,383.32673 C 60.859244,384.32597 67.950018,375.42335 67.950018,375.42335 C 67.950018,375.42335 66.131826,381.14648 71.495354,383.23588 C 76.858915,385.32528 83.222385,385.68867 83.222385,385.68867 C 83.222385,385.68867 86.586046,393.04708 118.91026,396.74505 z "
       id="path2240"
       sodipodi:nodetypes="cssssscccscccscccccssscccccccsscccsccsssssscsscscccccscsccsccscssssssssccsccsccsccccscccscssssccscscccccscssssszsssc" />
  </g>
</svg>
